<?xml version="1.0" encoding="UTF-8" standalone="no"?>
<svg
   xmlns:dc="http://purl.org/dc/elements/1.1/"
   xmlns:cc="http://creativecommons.org/ns#"
   xmlns:rdf="http://www.w3.org/1999/02/22-rdf-syntax-ns#"
   xmlns:svg="http://www.w3.org/2000/svg"
   xmlns="http://www.w3.org/2000/svg"
   xml:space="preserve"
   enable-background="new 0 0 2000 2000"
   viewBox="0 0 64 64"
   height="64"
   width="64"
   y="0px"
   x="0px"
   id="Layer_1"
   version="1.1"><metadata
     id="metadata16"><rdf:RDF><cc:Work
         rdf:about=""><dc:format>image/svg+xml</dc:format><dc:type
           rdf:resource="http://purl.org/dc/dcmitype/StillImage" /><dc:title></dc:title></cc:Work></rdf:RDF></metadata><defs
     id="defs14" /><g
     transform="translate(28.045215,27.931767)"
     id="layer1"><g
       transform="matrix(8.1269357,0,0,8.1308775,-28.305277,-28.165698)"
       id="g76"><path
         id="path90"
         d="m 0.032,7.8961516 c 0,-0.00212 0.05781806,-0.1078668 0.12848457,-0.235 C 0.75949544,6.5834952 1.2874613,5.6202304 1.661815,4.922 1.718432,4.8164 1.7733806,4.7147 1.7839228,4.696 1.8250802,4.6229944 2.1094677,4.0842508 2.2769551,3.762 2.443829,3.4409296 2.6888029,2.9541442 2.8280121,2.667 c 0.049248,-0.1015837 0.071225,-0.143 0.075879,-0.143 0.0036,0 0.019052,0.010329 0.03433,0.022953 C 3.0692072,2.6551876 3.2595164,2.7815596 3.452,2.88812 3.58464,2.9615506 3.8635646,3.0952506 3.9600274,3.1316386 L 3.982,3.1399271 3.97,3.1300964 C 3.9634,3.1246894 3.9112,3.0853962 3.854,3.0427781 3.688849,2.9197288 3.5485158,2.8040565 3.392,2.6619658 3.3201615,2.5967483 3.0357856,2.3141689 3.020769,2.29308 L 3.012389,2.281317 3.02953,2.243658 C 3.0389622,2.2229463 3.071479,2.152 3.1017938,2.086 3.3240795,1.6020511 3.4219618,1.3685992 3.9462286,0.072 c 0.00936,-0.02316024 0.019602,-0.0425322 0.022822,-0.04318646 0.00394,-8.0025e-4 0.010464,0.0096161 0.020046,0.032 C 3.9969107,0.0790661 4.0824892,0.2812 4.1792716,0.51 4.6778052,1.6885676 4.875774,2.1205541 5.3561244,3.078 5.73197,3.8271447 6.10252,4.5364756 6.7590368,5.763546 c 0.1110988,0.2076504 0.2028748,0.3809004 0.2039468,0.385 0.00112,0.00426 -1.4e-4,0.00745 -0.00293,0.00745 -0.00268,0 -0.035744,-0.017206 -0.073466,-0.038235 C 6.6843772,6.0050372 6.4424376,5.9038348 6.1759596,5.8205132 6.0649096,5.7857904 5.943804,5.7513988 5.938642,5.7531192 5.936522,5.7538264 5.964309,5.7703102 6.000393,5.7897492 6.3269868,5.9656944 6.6061928,6.1533136 6.932,6.4157648 6.9925,6.4645 7.087342,6.54074 7.14276,6.5851872 L 7.24352,6.666 7.3483448,6.86 c 0.057654,0.1067 0.206158,0.3812 0.3300092,0.61 0.1238516,0.2288 0.2263808,0.41915 0.2278432,0.423 0.00189,0.00497 6.8e-4,0.007 -0.00416,0.007 -0.00375,0 -0.079094,-0.041135 -0.167428,-0.091411 C 6.8844676,7.3247244 6.21629,7.0051204 5.6217784,6.7979768 5.3647448,6.7084196 5.09137,6.6325592 4.8507452,6.5840184 c -0.01279,-0.00258 -0.024139,-0.007 -0.025221,-0.00982 -0.00108,-0.00282 0.00256,-0.029217 0.0081,-0.058664 C 4.8630536,6.358948 4.8697108,6.2811556 4.8698664,6.092 4.8700064,5.9215788 4.8675804,5.8811148 4.849766,5.7567948 4.7960752,5.382112 4.6524644,5.0540956 4.4528844,4.8502924 4.3375376,4.7325044 4.2244392,4.6659524 4.087522,4.6352968 4.032554,4.6229896 3.9210831,4.6219544 3.868,4.6332588 3.6771064,4.6739096 3.5105406,4.8001848 3.3736901,5.008 3.1859119,5.2931516 3.0886781,5.679322 3.097225,6.106 3.100235,6.2562468 3.11242,6.370142 3.140233,6.508 3.153865,6.575568 3.1553,6.572028 3.111147,6.57979 3.0324455,6.5936256 2.8428873,6.638344 2.7210462,6.671818 2.0238018,6.8633764 1.2078918,7.2337124 0.15282076,7.837518 0.04929476,7.8967648 0.032,7.9051576 0.032,7.8961516 Z"
         style="fill:#9fd2eb;stroke-width:0.004" /><path
         id="path88"
         d="m 0.04,7.8902404 c 0,-9.68e-4 0.0807499,-0.147218 0.17944423,-0.325 C 0.81381588,6.494574 1.2897675,5.6258096 1.6598702,4.936 1.7242,4.8161 1.7809907,4.7115232 1.7860718,4.7036072 1.8080541,4.6693592 2.0672478,4.1801964 2.268047,3.794 2.4589672,3.426804 2.7086967,2.929388 2.8499272,2.635 2.87816,2.57615 2.9023766,2.528 2.9037418,2.528 c 0.00137,0 0.015932,0.01107 0.03237,0.024601 C 3.0258136,2.6264356 3.1960857,2.7450686 3.312,2.8144922 3.4860852,2.9187556 3.7159946,3.0346443 3.9254215,3.123695 3.9609397,3.1387977 3.99405,3.152366 3.999,3.1538468 4.017514,3.1593852 4.006806,3.1479034 3.967,3.119534 3.7816892,2.9874651 3.5972002,2.8388396 3.412,2.6724227 3.325273,2.5944917 3.0260621,2.2967986 3.022186,2.2845862 3.0205754,2.2795113 3.028998,2.2567886 3.0463494,2.2193979 3.2585228,1.7621838 3.4270034,1.368835 3.70314,0.686 3.9927806,-0.03022759 3.9665648,0.03295755 3.9718762,0.03829269 c 0.0038,0.0038135 0.017369,0.03559894 0.180181,0.42195699 C 4.6461312,1.6327039 4.8491404,2.0771078 5.3286912,3.036 5.705648,3.7897488 6.0730116,4.4922736 6.8258788,5.8991364 6.8980288,6.0339612 6.9560072,6.145326 6.9547196,6.1466136 6.9534324,6.1479012 6.9266436,6.134532 6.8951896,6.1169048 6.6419392,5.97498 6.3312148,5.8532624 5.9696084,5.7543336 5.9166216,5.7398372 5.8991324,5.7368836 5.9062,5.7436244 c 0.00209,0.00199 0.0335,0.019389 0.0698,0.038656 0.2575264,0.1366932 0.5180708,0.3033304 0.762,0.487356 0.058152,0.043871 0.145992,0.1137852 0.4113952,0.32744 l 0.091395,0.073575 0.1790152,0.331674 c 0.098458,0.1824208 0.2468152,0.4567624 0.3296812,0.6096484 0.082866,0.152886 0.148886,0.278568 0.1467104,0.2792932 C 7.894017,7.8919922 7.819737,7.851319 7.7311206,7.800882 6.5517264,7.1296152 5.7003296,6.7633888 4.9295836,6.5958072 c -0.052571,-0.01143 -0.096946,-0.022016 -0.098612,-0.023523 -0.00167,-0.00151 6.8e-4,-0.020498 0.00521,-0.042202 C 4.8630216,6.4015668 4.877194,6.2498596 4.8772964,6.09 4.8773804,5.96115 4.8730528,5.8921772 4.8576612,5.7769612 4.7834368,5.2213384 4.511784,4.7765176 4.172,4.6542184 4.1069752,4.630814 4.0666184,4.6233336 3.9933247,4.6211008 3.9108975,4.6185896 3.8656592,4.6247328 3.7955795,4.6479552 3.6867012,4.6840344 3.5951119,4.7445252 3.4979374,4.8445348 3.2739453,5.0750628 3.1295018,5.4492796 3.0959431,5.886 c -0.00574,0.074712 -0.00575,0.2614116 -1.2e-5,0.336 0.00798,0.1037288 0.018996,0.1818436 0.044717,0.3169668 0.00261,0.013732 0.00377,0.025953 0.00256,0.027158 -0.00121,0.00121 -0.03257,0.00832 -0.0697,0.015812 C 2.2929464,6.7394248 1.3860748,7.1266964 0.17307587,7.8205416 0.05959389,7.8854536 0.04,7.895716 0.04,7.8902404 Z"
         style="fill:#56b0dd;stroke-width:0.004" /><path
         id="path86"
         d="M 0.0501071,7.8757928 C 0.05391067,7.8684376 0.09661503,7.7912252 0.14500569,7.70421 0.48036236,7.101176 0.91286188,6.3165408 1.1869098,5.814 1.3792696,5.4612564 1.4273795,5.3724568 1.6127495,5.028 1.7573634,4.7592768 1.7911574,4.6992812 1.8050935,4.6865244 1.825739,4.6676264 2.2711648,4.4094648 2.482,4.2942004 2.6025262,4.2283084 2.82626,4.1168224 2.928,4.0719604 3.007974,4.0366954 3.1433713,3.9820724 3.214,3.9565782 3.2382,3.9478382 3.265067,3.9376832 3.273704,3.9340002 L 3.2894088,3.927304 3.247546,3.902652 C 3.2245215,3.8890934 3.0379312,3.7799 2.8329009,3.66 2.513177,3.4730281 2.4604587,3.4409232 2.4625082,3.4344349 c 0.00131,-0.00416 0.057257,-0.1184608 0.1243165,-0.254 0.1117324,-0.2258301 0.1831126,-0.371809 0.280652,-0.5739588 0.027537,-0.05707 0.037673,-0.074575 0.041482,-0.071642 0.00277,0.00214 0.019441,0.015611 0.037041,0.029947 0.243057,0.1979741 0.5840517,0.3935101 0.9854563,0.5650883 0.073026,0.031215 0.094155,0.037094 0.085377,0.023759 C 4.0152752,3.1512608 3.987,3.1298197 3.954,3.1059816 3.6535792,2.8889677 3.4462266,2.7112265 3.1706532,2.434502 3.0409243,2.3042312 3.0235286,2.2853117 3.0251654,2.2762698 3.0261878,2.2706214 3.0553025,2.2048 3.0898647,2.13 3.2787964,1.7211114 3.4452343,1.3302321 3.7200546,0.65 3.9096499,0.18071586 3.9647132,0.04586523 3.9681991,0.0422918 c 0.00219,-0.0022417 0.00619,0.0025042 0.010114,0.012 C 4.0093376,0.12931294 4.3256768,0.88004948 4.370908,0.986 4.5799664,1.4757025 4.7573732,1.8686903 4.9731168,2.32 5.2572816,2.9144394 5.700216,3.7870782 6.1060364,4.552 6.4997368,5.2940772 6.5372912,5.3646232 6.782818,5.8233308 6.8762372,5.9978628 6.951868,6.1414656 6.9508856,6.1424476 6.9499036,6.14343 6.9214024,6.1287636 6.88755,6.109856 6.6845872,5.9964944 6.4242924,5.8887792 6.1499284,5.804614 6.03279,5.76868 5.9148692,5.7359616 5.9031156,5.7361332 l -0.00912,1.32e-4 0.01,0.00832 c 0.0055,0.00458 0.0244,0.015563 0.042,0.024414 0.1740852,0.08754 0.4572908,0.2614396 0.6509528,0.3997116 0.131028,0.093552 0.2052972,0.1514408 0.53398,0.4162056 l 0.107902,0.086918 0.186312,0.3450816 c 0.1024716,0.1897944 0.2502424,0.4629812 0.3283796,0.6070812 0.078137,0.1441 0.1407004,0.262486 0.1390292,0.2630804 -0.00167,5.94e-4 -0.07254,-0.03848 -0.1574864,-0.086832 C 7.0595028,7.4157144 6.4925572,7.1326288 5.992,6.9299032 5.6098112,6.7751172 5.2427324,6.6594292 4.9088332,6.588534 4.8685912,6.579994 4.8346372,6.57197 4.8333792,6.570712 c -0.00126,-0.00126 0.00151,-0.021732 0.00615,-0.0455 0.025588,-0.1309972 0.036337,-0.2376532 0.039228,-0.3892128 0.00318,-0.1665336 -0.00606,-0.2986772 -0.030896,-0.442 C 4.7943112,5.3849452 4.6787376,5.1103808 4.5187148,4.9120484 4.4823296,4.866952 4.3986856,4.7852344 4.358,4.7550348 4.2247616,4.656136 4.092336,4.6112224 3.952,4.6173352 3.864499,4.6211468 3.7908204,4.640398 3.712,4.6800444 3.4449646,4.814362 3.2346547,5.1395204 3.1402651,5.5639992 c -0.066123,0.29736 -0.069197,0.63928 -0.00845,0.9397888 0.00643,0.031784 0.010904,0.059047 0.00995,0.060586 -9.509e-4,0.00154 -0.013888,0.00488 -0.028749,0.00742 -0.014861,0.00254 -0.063276,0.012563 -0.1075881,0.022265 -0.7727345,0.169182 -1.6265176,0.53739 -2.81578172,1.2143524 -0.0727925,0.041436 -0.13552442,0.076556 -0.13940424,0.078044 -0.0067177,0.00258 -0.0067243,0.00207 -1.3864e-4,-0.010666 z M 5.8039276,4.009 C 5.8038876,4.00735 5.798248,3.9961 5.7913948,3.984 5.784542,3.9719 5.7691152,3.944 5.757114,3.922 5.7451124,3.9 5.7234976,3.8604 5.7090808,3.834 5.6946644,3.8076 5.6744364,3.7725 5.66413,3.756 5.6538236,3.7395 5.6286656,3.694419 5.6082228,3.6558201 l -0.037168,-0.07018 -0.056527,-0.032879 c -0.03109,-0.018083 -0.072981,-0.042589 -0.093091,-0.054457 l -0.036564,-0.021578 0.022992,0.038637 c 0.012646,0.02125 0.033185,0.05541 0.045644,0.07591 0.012458,0.0205 0.02782,0.047512 0.034138,0.060026 0.018033,0.035723 0.1090768,0.1854007 0.166354,0.273488 L 5.686,3.974 5.738,3.9924906 c 0.052305,0.018599 0.066061,0.022044 0.065928,0.016509 z"
         style="fill:#52aedc;stroke-width:0.004" /><path
         id="path84"
         d="M 0.04851494,7.879 C 0.05115296,7.87405 0.10183367,7.7827 0.16113874,7.676 0.74730652,6.6213836 1.2184496,5.7622396 1.6328555,4.9922784 c 0.083395,-0.1549468 0.1549305,-0.2863468 0.1589679,-0.292 0.00404,-0.00565 0.021479,-0.018242 0.038759,-0.027976 C 1.847862,4.6625684 1.9556,4.6003392 2.07,4.5340148 2.4807207,4.2958956 2.6767834,4.19102 2.9023064,4.0888064 3.1774792,3.9640904 3.5090668,3.8533789 3.7479916,3.8064467 c 0.06378,-0.012528 0.065657,-0.013175 0.056,-0.019294 C 3.7391082,3.7460406 2.634799,3.1042702 2.6319594,3.1060251 c -0.00626,0.00387 -0.0022,-0.00505 0.069208,-0.1520251 0.081155,-0.1670324 0.1706584,-0.353519 0.1876577,-0.391 0.00674,-0.01485 0.013953,-0.027 0.01604,-0.027 0.00209,0 0.024796,0.01685 0.050464,0.037444 0.2468372,0.1980416 0.5727693,0.3845902 0.9695981,0.5549538 0.04561,0.019581 0.08566,0.035602 0.089,0.035602 0.016501,0 -5.704e-4,-0.016063 -0.072925,-0.068619 C 3.7209885,2.9355713 3.519862,2.7698716 3.346,2.6051835 3.21233,2.4785666 3.024,2.2882178 3.024,2.2797318 c 0,-0.00175 0.02625,-0.060451 0.058333,-0.1304536 0.2387612,-0.5209616 0.3960869,-0.8953635 0.8533018,-2.03067882 0.016701,-0.04147033 0.031949,-0.07567033 0.033884,-0.076 C 3.9714542,0.0422697 3.9833718,0.0672 3.9960025,0.098 4.143898,0.45864396 4.4663876,1.2147034 4.6110736,1.54 c 0.3477428,0.7818289 0.8025592,1.7002388 1.4599128,2.948 0.053894,0.1023 0.09936,0.1878 0.1010352,0.19 0.00167,0.0022 0.060202,0.112 0.1300596,0.244 C 6.4615088,5.2232456 6.5787944,5.4434088 6.7876624,5.833512 6.8782184,6.0026432 6.951632,6.1417012 6.950804,6.1425296 6.9499756,6.1433576 6.926956,6.1313088 6.8996492,6.1157544 6.7244256,6.0159456 6.4777916,5.9103724 6.234,5.8308204 6.1196404,5.7935036 5.934588,5.7396592 5.9056132,5.7352704 c -0.020698,-0.00314 -0.00795,0.00803 0.036387,0.031866 0.2547824,0.1369908 0.4265512,0.2416804 0.624,0.3803144 0.1325496,0.093067 0.242142,0.1772916 0.456,0.350448 0.0792,0.064127 0.1602,0.1293404 0.18,0.1449192 l 0.036,0.028325 0.1237048,0.2294284 C 7.4297424,7.0267572 7.576958,7.2990036 7.68885,7.505564 7.8007424,7.712124 7.8917752,7.8826456 7.8911452,7.8845004 7.8905156,7.8863552 7.836,7.8570716 7.77,7.8194256 6.5689388,7.134348 5.7042464,6.7609968 4.9280732,6.5923576 4.876744,6.5812052 4.834026,6.5713592 4.833144,6.5704776 c -8.816e-4,-8.82e-4 0.00289,-0.02475 0.00839,-0.05304 C 4.8560128,6.442868 4.8670468,6.3595176 4.87439,6.269216 4.8824436,6.1701748 4.8802316,5.9418796 4.8703472,5.852 4.8289852,5.4758944 4.7159932,5.167474 4.5318336,4.928 4.4925756,4.8769504 4.4032836,4.7884572 4.3535196,4.7512816 4.114088,4.5724152 3.8367698,4.5710028 3.601378,4.7474508 3.555198,4.7820668 3.483322,4.8517744 3.4420207,4.902 3.1717253,5.2307012 3.0412975,5.7751508 3.1023262,6.32 c 0.00685,0.061146 0.022446,0.1574232 0.033696,0.208 0.00416,0.0187 0.00631,0.035026 0.00477,0.036279 C 3.1392566,6.5655324 3.1083,6.5724148 3.072,6.5795728 2.7615343,6.6407952 2.3911331,6.7541132 2.008,6.9050856 1.5001143,7.1052168 0.90720676,7.3994352 0.19538894,7.804558 0.11475286,7.8504512 0.04763953,7.888 0.0462482,7.888 0.0448569,7.888 0.04587692,7.88395 0.04851494,7.879 Z M 5.812,4.0168428 C 5.812,4.0151028 5.788448,3.9696558 5.759663,3.9158427 5.5562728,3.5356108 5.5172704,3.4615588 5.3889564,3.212 5.36803,3.1713 5.345918,3.1315596 5.3398184,3.1236879 c -0.0061,-0.00787 -0.028189,-0.048372 -0.049088,-0.09 L 5.2527308,2.958 5.1396628,2.892 C 5.0774752,2.8557 5.0248316,2.825307 5.0226772,2.8244599 c -0.00215,-8.47e-4 0.00692,0.018953 0.020155,0.044 0.026808,0.050713 0.049203,0.095516 0.068753,0.1375401 0.032466,0.069789 0.2202912,0.4029729 0.3294744,0.5844564 0.082557,0.1372263 0.2300656,0.3713384 0.239612,0.3802911 0.00513,0.00481 0.034528,0.017735 0.065328,0.02872 0.057744,0.020594 0.066,0.022768 0.066,0.017375 z"
         style="fill:#46a8d9;stroke-width:0.004" /><path
         id="path82"
         d="M 0.05416297,7.8715832 C 0.05799728,7.8641124 0.14301463,7.7104 0.24309043,7.53 0.34316623,7.3496 0.45249716,7.1525 0.48604804,7.092 0.90497304,6.3365812 1.4754659,5.29113 1.7652466,4.7478168 1.7776209,4.724616 1.7918526,4.7019448 1.7968726,4.6974364 1.8018927,4.6929276 1.8456,4.6666496 1.894,4.6390404 1.9424,4.6114316 2.0537664,4.5471796 2.1414809,4.4962588 2.6139563,4.2219716 2.877272,4.0905792 3.184,3.9760494 3.522881,3.849514 3.8379189,3.7808198 4.196,3.7553823 c 0.1232764,-0.00876 0.4287108,-0.00504 0.532,0.00648 0.01037,0.00116 0.012444,5.145e-4 0.008,-0.00248 C 4.7327,3.7571638 4.3079,3.5083424 3.792,3.206447 2.8647164,2.6638176 2.8539414,2.6576519 2.8488722,2.6667732 c -0.012226,0.021999 -0.00671,0.00578 0.012851,-0.037773 0.025608,-0.057024 0.04165,-0.089 0.04465,-0.089 0.00123,0 0.024151,0.017591 0.050933,0.039091 0.2477071,0.1988519 0.5826389,0.3894896 0.9783929,0.5568852 0.075434,0.031907 0.092302,0.03679 0.092302,0.026721 0,-0.00731 -0.01029,-0.015934 -0.068,-0.057001 C 3.767351,2.9686068 3.571395,2.8094385 3.382,2.636207 3.31117,2.5714218 3.0345336,2.2962374 3.0281096,2.2841741 3.0258496,2.2799302 3.0423099,2.2398598 3.0807614,2.156 3.2842376,1.7122346 3.4487663,1.325523 3.7249016,0.642 3.9250142,0.14665734 3.9663932,0.046 3.9699097,0.046 c 0.00197,0 0.013788,0.0252 0.026263,0.056 0.05178,0.127842 0.3267777,0.78217328 0.4110269,0.978 0.231468,0.538019 0.4110652,0.9308431 0.6611036,1.446 0.154976,0.3192982 0.4175688,0.8428691 0.5963336,1.189 0.021872,0.04235 0.038936,0.077 0.037919,0.077 -0.010226,0 -0.491529,-0.9450464 -0.692635,-1.36 C 4.9051924,2.2159083 4.8091676,2.0242151 4.7928048,1.9985739 4.7769852,1.9737842 4.7792512,1.975267 4.5797988,1.8591916 l -0.018201,-0.010593 0.00892,0.027376 c 0.00883,0.027073 0.017449,0.048005 0.085696,0.2080249 0.1457636,0.3417735 0.3602676,0.7731086 0.5689148,1.144 0.180616,0.3210631 0.426216,0.7234826 0.457426,0.7494998 0.017235,0.014368 0.1325824,0.054361 0.1368536,0.047451 0.00193,-0.00313 0.027461,0.04161 0.068482,0.1200296 0.1225072,0.2341948 0.2490252,0.4729132 0.2761344,0.52102 0.014877,0.0264 0.068918,0.1272 0.12009,0.224 C 6.42737,5.1609792 6.5555716,5.4017416 6.7608284,5.7852564 6.864224,5.9784472 6.9479528,6.1373808 6.946892,6.1384416 6.9458308,6.1395024 6.9226964,6.127914 6.8954816,6.11269 6.657166,5.979374 6.36395,5.862454 6.028,5.7667812 5.89961,5.730218 5.8804796,5.7265804 5.896238,5.7417296 c 0.00317,0.00305 0.033662,0.020359 0.067762,0.038473 0.3450312,0.1832776 0.6284112,0.37278 0.974,0.6513348 0.066,0.053198 0.1598204,0.1286148 0.20849,0.1675932 0.048669,0.038978 0.090237,0.07357 0.092372,0.07687 0.00214,0.0033 0.078683,0.1446 0.1701068,0.314 0.091423,0.1694 0.2374368,0.4394 0.3244744,0.6 0.087038,0.1606 0.1568552,0.292488 0.1551496,0.2930848 C 7.8868876,7.8836812 7.8298064,7.8524408 7.761746,7.8136612 7.056048,7.4115692 6.4789264,7.1236904 5.9632256,6.9165264 5.59749,6.7696052 5.2525832,6.6615112 4.9203756,6.5896964 4.8752716,6.5799464 4.8371008,6.5706256 4.8355512,6.5689844 4.8340016,6.5673428 4.8369688,6.5444 4.8421456,6.518 4.869188,6.3800876 4.8810972,6.25026 4.8812224,6.092 4.8813224,5.9634116 4.876724,5.889234 4.8616868,5.7769612 4.7984632,5.3049188 4.5920884,4.90654 4.316,4.723586 4.2474572,4.6781652 4.1617044,4.6418176 4.084,4.6252496 4.057453,4.6195896 4.032463,4.6180296 3.97,4.6181296 c -0.087426,1.48e-4 -0.1156678,0.00473 -0.19,0.030848 -0.2514166,0.088334 -0.4702577,0.3592912 -0.5917192,0.732634 -0.06791,0.20874 -0.1005127,0.426164 -0.100482,0.670114 2e-5,0.165992 0.010129,0.2789416 0.038627,0.4316372 0.00794,0.042552 0.012895,0.078698 0.011007,0.080325 -0.00189,0.00163 -0.029533,0.00798 -0.061432,0.014128 -0.0319,0.00614 -0.0949,0.01977 -0.14,0.030279 C 2.1832588,6.7835048 1.3493705,7.1472892 0.19345418,7.804534 0.12055358,7.845984 0.05782163,7.881083 0.05404994,7.88253 0.04761164,7.885 0.04761854,7.88433 0.05416378,7.871578 Z"
         style="fill:#39a2d7;stroke-width:0.004" /><path
         id="path80"
         d="m 0.052,7.8809616 c 0,-0.00203 0.04737165,-0.089026 0.10527034,-0.193326 C 0.2638108,7.495712 0.58531892,6.914988 0.702951,6.702 1.0069886,6.1515008 1.3676414,5.490004 1.6556226,4.954644 1.7264376,4.822998 1.78645,4.7119684 1.7889836,4.7079116 1.7915171,4.7038548 1.8179822,4.6865404 1.847795,4.6694352 1.8776078,4.6523304 1.9893,4.5877304 2.096,4.5258796 2.5365886,4.2704848 2.7393424,4.16417 2.992,4.0560584 3.3850868,3.8878578 3.729766,3.8002304 4.144,3.7631868 c 0.090204,-0.00807 0.4285432,-0.00676 0.528,0.00204 0.2394976,0.021187 0.449372,0.056269 0.6764416,0.11307 0.1307268,0.032701 0.3127072,0.087131 0.3282016,0.098163 0.00669,0.00476 0.051992,0.068533 0.103024,0.1450221 C 5.8822524,4.2752376 5.9921876,4.4338796 6.08164,4.5572416 6.1746708,4.6855388 6.173248,4.683202 6.2720488,4.87 6.4190628,5.1479528 6.5508224,5.3954572 6.747972,5.764 6.9498336,6.1413512 6.9499828,6.1416348 6.9452948,6.1389484 6.7136176,6.0061832 6.4580468,5.8973764 6.162,5.8054688 6.051058,5.7710272 5.910912,5.732 5.8981736,5.732 c -0.013346,0 -0.012955,0.00684 8.264e-4,0.014436 0.00605,0.00334 0.0533,0.028976 0.105,0.056978 0.2589592,0.14026 0.4670216,0.273244 0.7029824,0.4493132 0.080183,0.059831 0.193714,0.14979 0.4290176,0.3399416 l 0.102,0.082427 0.1116972,0.207452 C 7.4111304,6.9966468 7.5536964,7.2604572 7.6665104,7.468794 7.8875876,7.877062 7.889218,7.8801156 7.8872236,7.88211 7.8864892,7.882844 7.8481136,7.8617948 7.8019444,7.8353336 6.8056616,7.2643344 6.0382856,6.9079724 5.366,6.7041048 5.217086,6.6589472 4.9914696,6.6013736 4.8705584,6.577676 l -0.035441,-0.00695 0.00211,-0.014365 c 0.00116,-0.0079 0.00676,-0.040483 0.012446,-0.072405 C 4.9228692,6.0729024 4.875336,5.609876 4.7234928,5.2548232 4.5700932,4.896132 4.3390632,4.6722468 4.07,4.6215412 4.0157944,4.611326 3.9261515,4.6121564 3.8689486,4.6234036 3.7297972,4.6507628 3.6055735,4.7236348 3.4877922,4.8469976 3.33032,5.011932 3.2033777,5.2696 3.140195,5.5525528 3.070809,5.8632836 3.067324,6.1993564 3.130265,6.5101492 c 0.00564,0.027864 0.00955,0.051374 0.00868,0.052245 -8.711e-4,8.712e-4 -0.027539,0.00684 -0.059261,0.013274 C 2.3364412,6.7263124 1.5211354,7.0639072 0.41,7.681106 0.31067846,7.736276 0.09566188,7.8582304 0.065,7.8767856 c -0.00715,0.00433 -0.013,0.00621 -0.013,0.00418 z M 4.21,2.7454783 C 3.6138,2.396579 3.1241547,2.1103776 3.1218994,2.1094752 3.119644,2.1085727 3.1118662,2.1191216 3.1046154,2.1329172 3.0858776,2.168568 3.0590624,2.2151064 3.061353,2.208 3.0624167,2.2047 3.1082448,2.1012 3.1631934,1.978 3.3563261,1.5449775 3.4855502,1.2381628 3.7359975,0.618 3.7848623,0.497 3.8553202,0.32279036 3.8925707,0.23086748 c 0.03725,-0.0919229 0.069597,-0.17202289 0.07188,-0.178 L 3.9686028,0.042 l 0.00555,0.01 c 0.00825,0.01485782 0.024779,0.0674121 0.027682,0.088 0.00728,0.0516464 0.086426,0.36561576 0.13461,0.534 0.1607592,0.5617956 0.395556,1.1769455 0.6722172,1.7611597 0.1236132,0.2610289 0.3228388,0.6446339 0.4540176,0.8742026 0.025514,0.044651 0.037667,0.070831 0.032753,0.070558 C 5.2946452,3.3798768 4.8062,3.0943776 4.21,2.7454783 Z"
         style="fill:#299bd3;stroke-width:0.004" /><path
         id="path78"
         d="M 0.06050903,7.867 C 0.06314381,7.86205 0.10032988,7.795 0.14314474,7.718 0.72652552,6.668824 1.2613527,5.693214 1.6817019,4.9114256 L 1.7927721,4.7048512 1.813386,4.6936784 C 1.8247237,4.6875336 1.9384,4.6220004 2.066,4.5480492 2.4295202,4.3373696 2.5515439,4.270198 2.738,4.1781252 3.2661488,3.9173241 3.7277741,3.7893579 4.2315864,3.7640916 c 0.347414,-0.017423 0.7283212,0.023639 1.1129016,0.1199702 0.1529312,0.038307 0.3261316,0.091256 0.3363516,0.1028263 0.00346,0.00391 0.044094,0.063812 0.09031,0.1331119 0.1271612,0.1906792 0.2710412,0.3967264 0.3728852,0.534 0.031632,0.042637 0.052862,0.079008 0.1179088,0.202 C 6.4066004,5.1295232 6.570806,5.4379124 6.756796,5.7853676 6.8578868,5.97422 6.9398384,6.1294952 6.93891,6.1304236 6.9379816,6.1313516 6.9193972,6.1219852 6.8976112,6.1096088 6.8022332,6.0554264 6.64174,5.9791516 6.518,5.929198 6.4511564,5.9022132 6.2887948,5.8426884 6.244,5.828744 6.2297,5.8242928 6.1973,5.81408 6.172,5.8060488 6.1201236,5.789582 5.9646852,5.7447016 5.921714,5.7337832 c -0.028937,-0.00735 -0.043158,-0.0062 -0.039549,0.0032 0.00112,0.00291 0.025836,0.01772 0.054933,0.032912 0.1994824,0.1041584 0.413108,0.2335108 0.60126,0.3640736 0.1530684,0.1062172 0.2774964,0.202556 0.6131244,0.474714 L 7.2369652,6.678 7.4159136,7.01 c 0.098422,0.1826 0.2438536,0.4517 0.3231828,0.598 0.079329,0.1463 0.143538,0.2666972 0.1426868,0.2675492 C 7.880932,7.8764012 7.8185324,7.8419632 7.7431176,7.7990204 6.5529276,7.1213012 5.69041,6.75114 4.9125884,6.5842604 4.872212,6.5755976 4.8386728,6.5679452 4.8380572,6.5672552 4.8374412,6.5665648 4.8419916,6.539 4.8481688,6.506 4.873664,6.3698032 4.884758,6.2425756 4.8847932,6.086 4.8848332,5.974358 4.8808392,5.9010508 4.869814,5.81 4.8054648,5.2785916 4.5678704,4.8449792 4.252,4.6824828 4.1940444,4.652668 4.1497644,4.6363372 4.091522,4.6232968 4.0362892,4.61093 3.9174141,4.6098604 3.864,4.6212496 3.5924969,4.6791396 3.3628222,4.9161512 3.2178892,5.288 c -0.063669,0.163352 -0.106608,0.3532076 -0.1266544,0.56 -0.00703,0.072481 -0.00706,0.34843 -4.72e-5,0.416 0.00756,0.072827 0.02345,0.1808876 0.034869,0.2370664 0.00547,0.026906 0.00994,0.051785 0.00994,0.055286 0,0.00477 -0.00728,0.00765 -0.029,0.011464 -0.053841,0.00946 -0.1883613,0.040279 -0.297,0.068033 C 2.0995194,6.8173612 1.2841182,7.1797596 0.20738894,7.7925592 0.12675286,7.8384516 0.05963953,7.876 0.0582482,7.876 0.0568569,7.876 0.05787424,7.87195 0.06050903,7.867 Z M 4.0485376,1.8130365 3.4230754,1.4470282 l -0.0098,0.011486 c -0.00885,0.010374 -0.063526,0.1186157 -0.097251,0.1925369 -0.00729,0.015978 -0.01393,0.028374 -0.014757,0.027548 -8.269e-4,-8.268e-4 0.024837,-0.0634 0.05703,-0.139051 C 3.4783191,1.2575022 3.5718716,1.0305922 3.7530816,0.582 3.8046259,0.4544 3.8744266,0.28178953 3.9081942,0.19842118 l 0.061396,-0.15157881 0.00718,0.01690817 c 0.00395,0.0092995 0.00908,0.02881969 0.011409,0.04337821 0.00233,0.0145585 0.013254,0.0652603 0.024285,0.11267064 0.102014,0.43845501 0.2267496,0.84263331 0.4055108,1.31396801 0.074484,0.1963919 0.095828,0.2493585 0.2278864,0.5655213 0.016836,0.040309 0.030055,0.074744 0.029375,0.076522 -6.804e-4,0.00178 -0.2826952,-0.16147 -0.6266988,-0.3627742 z M 3.2881225,1.706 c 0,-0.0022 0.00174,-0.0067 0.00388,-0.01 0.00213,-0.0033 0.00388,-0.0042 0.00388,-0.002 0,0.0022 -0.00174,0.0067 -0.00388,0.01 -0.00213,0.0033 -0.00388,0.0042 -0.00388,0.002 z"
         style="fill:#1692d0;stroke-width:0.004" /></g></g></svg>